<?xml version="1.0" encoding="UTF-8"?>
<svg width="24px" height="24px" viewBox="0 0 24 24" version="1.1" xmlns="http://www.w3.org/2000/svg" xmlns:xlink="http://www.w3.org/1999/xlink">
    <title>Artboard</title>
    <g id="Artboard" stroke="none" stroke-width="1" fill="none" fill-rule="evenodd">
        <path d="M8.83418147,2 C9.3661365,2 9.87617504,2.21192127 10.2514971,2.58889537 L11.0455201,3.38641327 C11.4208422,3.76338737 11.9308808,3.97530864 12.4628358,3.97530864 L22,3.97530864 C23.1045695,3.97530864 24,4.87073914 24,5.97530864 L24,20 C24,21.1045695 23.1045695,22 22,22 L2,22 C0.8954305,22 -3.0881846e-16,21.1045695 0,20 L0,4 C-1.3527075e-16,2.8954305 0.8954305,2 2,2 L8.83418147,2 Z M18.5,9 L16,9 L16,12.749 L12.25,12.75 L12.25,15.25 L16,15.249 L16,19 L18.5,19 L18.5,15.25 L22.25,15.25 L22.25,12.75 L18.5,12.75 L18.5,9 Z" id="Combined-Shape" fill="#000000"></path>
    </g>
</svg>