<?xml version="1.0" encoding="UTF-8"?>
<svg width="361px" height="477px" viewBox="0 0 361 477" version="1.1" xmlns="http://www.w3.org/2000/svg" xmlns:xlink="http://www.w3.org/1999/xlink">
    <!-- Generator: Sketch 63.1 (92452) - https://sketch.com -->
    <title>new-file</title>
    <desc>Created with Sketch.</desc>
    <g id="new-file" stroke="none" stroke-width="1" fill="none" fill-rule="evenodd">
        <g id="Group" transform="translate(31.000000, 30.000000)" fill="#343434">
            <path d="M166.607525,0 C171.630724,-1.86863151e-14 176.469995,1.89021745 180.163329,5.29489242 L296.555804,112.590505 C300.663381,116.377047 303,121.709014 303,127.295613 L303,400 C303,411.045695 294.045695,420 283,420 L20,420 C8.954305,420 1.3527075e-15,411.045695 0,400 L0,20 C-1.3527075e-15,8.954305 8.954305,2.02906125e-15 20,0 L166.607525,0 Z M132,239 L94,239 L94,293.999 L39,294 L39,332 L94,331.999 L94,387 L132,387 L132,332 L187,332 L187,294 L132,294 L132,239 Z M165.571556,41.5659247 C164.560603,42.6718029 164,44.1159138 164,45.6142435 L164,127.700868 C164,131.014577 166.686292,133.700868 170,133.700868 L259.794313,133.700868 C263.108021,133.700868 265.794313,131.014577 265.794313,127.700868 C265.794313,126.016185 265.086053,124.409113 263.842632,123.272424 L174.048319,41.1857997 C171.602557,38.949975 167.807381,39.1201627 165.571556,41.5659247 Z" id="Combined-Shape"></path>
        </g>
    </g>
</svg>