<?xml version="1.0" encoding="UTF-8"?>
<svg width="46px" height="46px" viewBox="0 0 46 46" version="1.1" xmlns="http://www.w3.org/2000/svg" xmlns:xlink="http://www.w3.org/1999/xlink">
    <title>Combined Shape</title>
    <g id="Page-1" stroke="none" stroke-width="1" fill="none" fill-rule="evenodd">
        <g id="Artboard" transform="translate(-10.000000, -10.000000)" fill="#FFFFFF">
            <path d="M32.8606294,39.9108852 C36.7266227,39.9108852 39.8606294,36.7768785 39.8606294,32.9108852 C39.8606294,29.044892 36.7266227,25.9108852 32.8606294,25.9108852 C28.9946362,25.9108852 25.8606294,29.044892 25.8606294,32.9108852 C25.8606294,36.7768785 28.9946362,39.9108852 32.8606294,39.9108852 Z M36.7896188,10 L37.8400924,16.6517855 C38.8950229,16.9744678 39.9063409,17.397002 40.8630277,17.9083695 L46.3606294,13.9108852 L51.8606294,19.4108852 L47.8630435,24.9082967 C48.3788204,25.8732033 48.8042303,26.8936854 49.1279679,27.9584377 L55.7781746,29.0078409 L55.7781746,36.7860154 L49.1367154,37.8344702 C48.8119078,38.9096458 48.3834791,39.9398518 47.8630435,40.9134737 L51.8606294,46.4108852 L46.3606294,51.9108852 L40.8640272,47.9128667 C39.8940737,48.4314089 38.8679548,48.8586336 37.7971554,49.1830561 L36.7427704,55.8622572 L28.9645958,55.8622572 L27.908219,49.178235 C26.843087,48.8543846 25.8222566,48.4287895 24.8570451,47.912767 L19.3606294,51.9108852 L13.8606294,46.4108852 L17.8582154,40.9134737 C17.336334,39.937147 16.9069713,38.9039214 16.5818389,37.8255084 L10,36.7860154 L10,29.0078409 L16.5905709,27.9673928 C16.9146443,26.8994069 17.3409927,25.8759081 17.8582154,24.9082967 L13.8606294,19.4108852 L19.3606294,13.9108852 L24.8580409,17.9084712 C25.8398455,17.3836617 26.8791891,16.952412 27.9641622,16.6266319 L29.0114442,10 L36.7896188,10 Z" id="Combined-Shape"></path>
        </g>
    </g>
</svg>