<?xml version="1.0" encoding="UTF-8"?>
<svg width="58px" height="58px" viewBox="0 0 58 58" version="1.1" xmlns="http://www.w3.org/2000/svg" xmlns:xlink="http://www.w3.org/1999/xlink">
    <title>pen</title>
    <g id="Page-1" stroke="none" stroke-width="1" fill="none" fill-rule="evenodd">
        <g id="edit" transform="translate(-4.000000, -3.000000)" fill="#000000">
            <path d="M11.8322717,38.1677283 L27.6811737,21.881953 L35.2193001,14.136039 L51.4827561,30.3994949 L43.6953841,37.9062442 L39.241378,42.1997475 L27,54 L25.4904452,46.5095548 L19,46 L18.4904452,39.5095548 L11.8322717,38.1677283 Z M9.5,40 L16.5,41 L17,48 L24,48.5 L25,55 L4,61 L9.5,40 Z M51.263456,5.24264069 L60.4558441,14.4350288 C62.4084656,16.3876503 62.4084656,19.5534752 60.4558441,21.5060967 L54.0918831,27.8700577 L37.8284271,11.6066017 L44.1923882,5.24264069 C46.1450096,3.29001923 49.3108345,3.29001923 51.263456,5.24264069 Z" id="pen"></path>
        </g>
    </g>
</svg>