<?xml version="1.0" encoding="UTF-8"?>
<svg width="65px" height="65px" viewBox="0 0 65 65" version="1.1" xmlns="http://www.w3.org/2000/svg" xmlns:xlink="http://www.w3.org/1999/xlink">
    <title>Combined Shape</title>
    <g id="Page-1" stroke="none" stroke-width="1" fill="none" fill-rule="evenodd">
        <g id="Artboard" transform="translate(-11.000000, -11.000000)" fill="#FFFFFF">
            <path d="M26.2751772,11 L26.2751772,28.5194963 C26.2751772,30.1763506 27.618323,31.5194963 29.2751772,31.5194963 L55.0270179,31.5194963 C56.6838722,31.5194963 58.0270179,30.1763506 58.0270179,28.5194963 L58.0270179,11 L62.7488214,11 C63.5495176,11 64.3169894,11.3200814 64.8804125,11.8890004 L76,23.1170529 L76,69 C76,72.8659932 72.8659932,76 69,76 L18,76 C14.1340068,76 11,72.8659932 11,69 L11,18 C11,14.1340068 14.1340068,11 18,11 L26.2751772,11 Z M59,46 L28,46 C25.3112453,46 23.1181819,48.1223067 23.0046195,50.7831104 L23,51 L23,70 L64,70 L64,51 C64,48.2385763 61.7614237,46 59,46 Z M52,11 L52,26 L46,26 L46,11 L52,11 Z" id="Combined-Shape"></path>
        </g>
    </g>
</svg>